<mxfile host="app.diagrams.net" modified="2023-06-21T22:47:12.992Z" agent="Mozilla/5.0 (X11; Ubuntu; Linux x86_64; rv:109.0) Gecko/20100101 Firefox/114.0" version="21.3.8" etag="4rCiOppESIgKwXAqxUsH" type="github">
  <diagram name="PÃ¡gina-1" id="JRzzh_AQHd8for10bgn0">
    <mxGraphModel>
      <root>
        <mxCell id="0" />
        <mxCell id="1" parent="0" />
      </root>
    </mxGraphModel>
  </diagram>
</mxfile>
